<svg width="38" height="38" viewBox="0 0 38 38" fill="none" xmlns="http://www.w3.org/2000/svg">
<path d="M33.7693 12.6665H29.1333L28.1453 6.76387C27.9462 5.87079 27.509 5.04829 26.8801 4.38369C26.2512 3.71909 25.4541 3.23721 24.5733 2.9892C23.6885 2.70452 22.7667 2.55089 21.8373 2.5332H16.1627C15.2333 2.55089 14.3115 2.70452 13.4267 2.9892C12.5459 3.23721 11.7488 3.71909 11.1198 4.38369C10.4909 5.04829 10.0537 5.87079 9.85465 6.76387L8.86665 12.6665H4.23065C4.03112 12.6653 3.83413 12.7113 3.65573 12.8006C3.47732 12.89 3.32255 13.0202 3.20402 13.1807C3.08549 13.3412 3.00655 13.5275 2.97364 13.7243C2.94074 13.9211 2.95479 14.1229 3.01465 14.3132L7.77732 30.2732C8.01979 31.0442 8.50177 31.7178 9.15325 32.1962C9.80472 32.6745 10.5917 32.9327 11.4 32.9332H26.6C27.4039 32.9273 28.1852 32.6667 28.8316 32.1887C29.478 31.7108 29.9562 31.0401 30.1973 30.2732L34.96 14.3132C35.0192 14.1249 35.0336 13.9254 35.0021 13.7305C34.9705 13.5356 34.8938 13.3508 34.7781 13.1909C34.6625 13.0309 34.511 12.9002 34.3359 12.8092C34.1607 12.7181 33.9667 12.6693 33.7693 12.6665ZM11.4507 12.6665L12.3627 7.1692C12.4626 6.72036 12.6946 6.31167 13.0286 5.99566C13.3627 5.67965 13.7836 5.47078 14.2373 5.39587C14.8605 5.19827 15.5091 5.08934 16.1627 5.06654H21.8373C22.4985 5.0868 23.1547 5.19827 23.788 5.39587C24.2417 5.47078 24.6626 5.67965 24.9967 5.99566C25.3308 6.31167 25.5627 6.72036 25.6627 7.1692L26.5493 12.6665H11.3493H11.4507Z" fill="#C3D7C3"/>
</svg>
