<svg width="38" height="38" viewBox="0 0 38 38" fill="none" xmlns="http://www.w3.org/2000/svg">
<path d="M33.7694 12.6668H29.1334L28.1453 6.76411C27.9463 5.87103 27.5091 5.04853 26.8802 4.38393C26.2512 3.71934 25.4541 3.23745 24.5733 2.98945C23.6885 2.70476 22.7667 2.55114 21.8373 2.53345H16.1627C15.2333 2.55114 14.3115 2.70476 13.4267 2.98945C12.5459 3.23745 11.7488 3.71934 11.1199 4.38393C10.491 5.04853 10.0538 5.87103 9.85468 6.76411L8.86668 12.6668H4.23068C4.03115 12.6656 3.83416 12.7115 3.65576 12.8009C3.47735 12.8902 3.32258 13.0205 3.20405 13.181C3.08552 13.3415 3.00658 13.5277 2.97367 13.7245C2.94077 13.9213 2.95482 14.1231 3.01468 14.3134L7.77735 30.2734C8.01982 31.0445 8.5018 31.7181 9.15328 32.1964C9.80475 32.6748 10.5918 32.933 11.4 32.9334H26.6C27.4039 32.9276 28.1852 32.6669 28.8316 32.189C29.478 31.711 29.9562 31.0403 30.1973 30.2734L34.96 14.3134C35.0193 14.1251 35.0337 13.9256 35.0021 13.7307C34.9705 13.5359 34.8938 13.3511 34.7782 13.1911C34.6625 13.0312 34.5111 12.9004 34.3359 12.8094C34.1607 12.7184 33.9667 12.6695 33.7694 12.6668ZM11.4507 12.6668L12.3627 7.16945C12.4627 6.7206 12.6946 6.31191 13.0286 5.9959C13.3627 5.6799 13.7836 5.47102 14.2373 5.39611C14.8605 5.19851 15.5091 5.08958 16.1627 5.06678H21.8373C22.4985 5.08705 23.1547 5.19851 23.788 5.39611C24.2417 5.47102 24.6627 5.6799 24.9967 5.9959C25.3308 6.31191 25.5627 6.7206 25.6627 7.16945L26.5493 12.6668H11.3493H11.4507Z" fill="#E35052"/>
</svg>
