<svg width="46" height="45" viewBox="0 0 46 45" fill="none" xmlns="http://www.w3.org/2000/svg">
<path d="M23 7.5C25.0333 7.5 26.9834 8.29018 28.4212 9.6967C29.859 11.1032 30.6667 13.0109 30.6667 15C30.6667 16.9891 29.859 18.8968 28.4212 20.3033C26.9834 21.7098 25.0333 22.5 23 22.5C20.9667 22.5 19.0166 21.7098 17.5789 20.3033C16.1411 18.8968 15.3334 16.9891 15.3334 15C15.3334 13.0109 16.1411 11.1032 17.5789 9.6967C19.0166 8.29018 20.9667 7.5 23 7.5ZM23 26.25C31.4717 26.25 38.3334 29.6063 38.3334 33.75V37.5H7.66669V33.75C7.66669 29.6063 14.5284 26.25 23 26.25Z" fill="#C3D7C3"/>
</svg>
