<svg width="46" height="45" viewBox="0 0 46 45" fill="none" xmlns="http://www.w3.org/2000/svg">
<path d="M23 7.5C25.0333 7.5 26.9833 8.29018 28.4211 9.6967C29.8589 11.1032 30.6666 13.0109 30.6666 15C30.6666 16.9891 29.8589 18.8968 28.4211 20.3033C26.9833 21.7098 25.0333 22.5 23 22.5C20.9666 22.5 19.0166 21.7098 17.5788 20.3033C16.141 18.8968 15.3333 16.9891 15.3333 15C15.3333 13.0109 16.141 11.1032 17.5788 9.6967C19.0166 8.29018 20.9666 7.5 23 7.5ZM23 26.25C31.4716 26.25 38.3333 29.6063 38.3333 33.75V37.5H7.66663V33.75C7.66663 29.6063 14.5283 26.25 23 26.25Z" fill="#5D935C"/>
</svg>
