<svg width="36" height="33" viewBox="0 0 36 33" fill="none" xmlns="http://www.w3.org/2000/svg">
<path d="M16.1357 29.313L16.1342 29.3117C11.6083 25.2076 7.93218 21.8678 5.37583 18.7403C2.83046 15.6262 1.5 12.845 1.5 9.875C1.5 5.02098 5.28609 1.25 10.125 1.25C12.8677 1.25 15.5166 2.53196 17.2412 4.54128L18 5.42543L18.7588 4.54128C20.4834 2.53196 23.1323 1.25 25.875 1.25C30.7139 1.25 34.5 5.02098 34.5 9.875C34.5 12.845 33.1695 15.6262 30.6242 18.7403C28.0678 21.8678 24.3917 25.2076 19.8658 29.3117L19.8643 29.313L18 31.0102L16.1357 29.313Z" fill="#5D935C" stroke="white" stroke-width="2"/>
</svg>
