<svg width="42" height="42" viewBox="0 0 42 42" fill="none" xmlns="http://www.w3.org/2000/svg">
<path d="M36.75 17.0625H35.3768C35.047 13.4775 33.3897 10.1451 30.73 7.71881C28.0703 5.29255 24.6001 3.94751 21 3.94751C17.3999 3.94751 13.9297 5.29255 11.27 7.71881C8.61026 10.1451 6.95299 13.4775 6.6232 17.0625H5.25C4.9019 17.0625 4.56806 17.2007 4.32192 17.4469C4.07578 17.693 3.9375 18.0269 3.9375 18.375C3.94327 21.4963 4.80226 24.5566 6.42159 27.2251C8.04091 29.8935 10.3589 32.0684 13.125 33.5147V34.125C13.125 34.8212 13.4016 35.4888 13.8938 35.9811C14.3861 36.4734 15.0538 36.75 15.75 36.75H26.25C26.9462 36.75 27.6139 36.4734 28.1062 35.9811C28.5984 35.4888 28.875 34.8212 28.875 34.125V33.5147C31.6411 32.0684 33.9591 29.8935 35.5784 27.2251C37.1977 24.5566 38.0567 21.4963 38.0625 18.375C38.0625 18.0269 37.9242 17.693 37.6781 17.4469C37.4319 17.2007 37.0981 17.0625 36.75 17.0625ZM28.4616 9.2252C28.7623 9.4713 29.0505 9.73106 29.3262 10.0045C25.8322 11.2336 22.945 13.7596 21.2625 17.0592H16.4227C17.243 14.7597 18.7532 12.7696 20.7471 11.3607C22.7409 9.95181 25.1211 9.19283 27.5625 9.18747C27.8627 9.18747 28.163 9.20223 28.4616 9.2252ZM24.3009 17.0625C25.8922 14.6752 28.2996 12.9503 31.0718 12.2111C31.9782 13.6855 32.5469 15.3423 32.737 17.0625H24.3009ZM21 6.56247C22.0532 6.56316 23.1016 6.70497 24.1172 6.98411C21.6438 7.59766 19.3759 8.85235 17.542 10.6217C15.7081 12.3911 14.373 14.6127 13.6713 17.0625H9.26297C9.58854 14.1764 10.9648 11.511 13.1294 9.57456C15.2941 7.63809 18.0956 6.56592 21 6.56247Z" fill="#5D935C"/>
</svg>
