<svg width="42" height="42" viewBox="0 0 42 42" fill="none" xmlns="http://www.w3.org/2000/svg">
<path d="M36.75 17.0627H35.3768C35.047 13.4777 33.3897 10.1453 30.73 7.71906C28.0703 5.29279 24.6001 3.94775 21 3.94775C17.3999 3.94775 13.9297 5.29279 11.27 7.71906C8.61026 10.1453 6.95299 13.4777 6.6232 17.0627H5.25C4.9019 17.0627 4.56806 17.201 4.32192 17.4471C4.07578 17.6933 3.9375 18.0271 3.9375 18.3752C3.94327 21.4965 4.80226 24.5569 6.42159 27.2253C8.04091 29.8937 10.3589 32.0687 13.125 33.5149V34.1252C13.125 34.8214 13.4016 35.4891 13.8938 35.9814C14.3861 36.4737 15.0538 36.7502 15.75 36.7502H26.25C26.9462 36.7502 27.6139 36.4737 28.1062 35.9814C28.5984 35.4891 28.875 34.8214 28.875 34.1252V33.5149C31.6411 32.0687 33.9591 29.8937 35.5784 27.2253C37.1977 24.5569 38.0567 21.4965 38.0625 18.3752C38.0625 18.0271 37.9242 17.6933 37.6781 17.4471C37.4319 17.201 37.0981 17.0627 36.75 17.0627ZM28.4616 9.22545C28.7623 9.47154 29.0505 9.73131 29.3262 10.0047C25.8322 11.2338 22.945 13.7598 21.2625 17.0594H16.4227C17.243 14.76 18.7532 12.7699 20.7471 11.361C22.7409 9.95205 25.1211 9.19308 27.5625 9.18771C27.8627 9.18771 28.163 9.20248 28.4616 9.22545ZM24.3009 17.0627C25.8922 14.6754 28.2996 12.9505 31.0718 12.2114C31.9782 13.6857 32.5469 15.3425 32.737 17.0627H24.3009ZM21 6.56271C22.0532 6.56341 23.1016 6.70522 24.1172 6.98435C21.6438 7.5979 19.3759 8.8526 17.542 10.622C15.7081 12.3914 14.373 14.6129 13.6713 17.0627H9.26297C9.58854 14.1766 10.9648 11.5113 13.1294 9.5748C15.2941 7.63833 18.0956 6.56616 21 6.56271Z" fill="white" fill-opacity="0.95"/>
</svg>
