<svg width="42" height="42" viewBox="0 0 42 42" fill="none" xmlns="http://www.w3.org/2000/svg">
<path d="M36.75 17.0622H35.3768C35.047 13.4773 33.3897 10.1448 30.73 7.71857C28.0703 5.2923 24.6001 3.94727 21 3.94727C17.3999 3.94727 13.9297 5.2923 11.27 7.71857C8.61026 10.1448 6.95299 13.4773 6.6232 17.0622H5.25C4.9019 17.0622 4.56806 17.2005 4.32192 17.4466C4.07578 17.6928 3.9375 18.0266 3.9375 18.3747C3.94327 21.496 4.80226 24.5564 6.42159 27.2248C8.04091 29.8932 10.3589 32.0682 13.125 33.5144V34.1247C13.125 34.8209 13.4016 35.4886 13.8938 35.9809C14.3861 36.4732 15.0538 36.7497 15.75 36.7497H26.25C26.9462 36.7497 27.6139 36.4732 28.1062 35.9809C28.5984 35.4886 28.875 34.8209 28.875 34.1247V33.5144C31.6411 32.0682 33.9591 29.8932 35.5784 27.2248C37.1977 24.5564 38.0567 21.496 38.0625 18.3747C38.0625 18.0266 37.9242 17.6928 37.6781 17.4466C37.4319 17.2005 37.0981 17.0622 36.75 17.0622ZM28.4616 9.22496C28.7623 9.47105 29.0505 9.73082 29.3262 10.0043C25.8322 11.2333 22.945 13.7593 21.2625 17.0589H16.4227C17.243 14.7595 18.7532 12.7694 20.7471 11.3605C22.7409 9.95157 25.1211 9.19259 27.5625 9.18722C27.8627 9.18722 28.163 9.20199 28.4616 9.22496ZM24.3009 17.0622C25.8922 14.6749 28.2996 12.95 31.0718 12.2109C31.9782 13.6852 32.5469 15.342 32.737 17.0622H24.3009ZM21 6.56222C22.0532 6.56292 23.1016 6.70473 24.1172 6.98386C21.6438 7.59741 19.3759 8.85211 17.542 10.6215C15.7081 12.3909 14.373 14.6124 13.6713 17.0622H9.26297C9.58854 14.1761 10.9648 11.5108 13.1294 9.57432C15.2941 7.63784 18.0956 6.56568 21 6.56222Z" fill="#C3D7C3"/>
</svg>
