<svg width="158" height="65" viewBox="0 0 158 65" fill="none" xmlns="http://www.w3.org/2000/svg">
<path d="M27.5664 21.9219C27.7949 22.0449 28.0234 22.1504 28.2695 22.2383C28.498 22.3438 28.6035 22.4844 28.6035 22.6777C28.6035 22.748 28.5859 22.8359 28.5508 22.9238L28.4453 23.0645C27.9883 23.75 27.6543 24.3477 27.4258 24.8398C27.2676 25.1914 27.1973 25.5254 27.1973 25.877C27.1973 26.0176 27.1973 26.1582 27.2324 26.2988V26.3516C27.2324 26.4922 27.127 26.6152 26.916 26.7031C26.8457 26.7383 26.7754 26.7559 26.7051 26.7559C26.582 26.7559 26.4941 26.6855 26.4238 26.5625C26.0195 25.5781 25.5449 24.7695 25.0176 24.1191C24.4902 23.4863 23.9629 22.9766 23.418 22.6074C21.8008 21.5527 20.043 21.0254 18.1445 21.0254C17.916 21.0254 17.6875 21.0254 17.459 21.043C16.0703 21.1309 15.0508 21.5879 14.3652 22.4492C14.0137 22.8887 13.8203 23.3984 13.8203 23.9785C13.8203 24.5059 13.9785 25.0684 14.2598 25.7012C14.7695 26.6855 15.6133 27.5117 16.7734 28.1621C17.916 28.8301 19.1992 29.4453 20.6055 30.0254C20.7988 30.1133 21.0098 30.2012 21.2031 30.2891C22.1875 30.6934 23.1367 31.1328 24.0508 31.6074C24.9648 32.082 25.791 32.627 26.5293 33.2246C27.2676 33.8398 27.8652 34.5254 28.3047 35.3164C28.7441 36.1074 28.9727 37.0215 28.9727 38.0586C28.9727 39.4824 28.5684 40.625 27.7773 41.4863C26.9863 42.3652 25.9141 42.998 24.5605 43.4023C23.207 43.8066 21.7129 44 20.043 44C18.6719 44 17.3535 43.8945 16.0879 43.666C14.8223 43.4375 13.5918 42.998 12.3965 42.3301C12.168 42.207 11.9395 42.084 11.6934 41.9961C11.4648 41.8906 11.3594 41.75 11.3594 41.5742C11.3594 41.5039 11.377 41.416 11.4121 41.3281C11.4473 41.2754 11.4824 41.2227 11.5176 41.1699C11.9746 40.4844 12.3086 39.8867 12.5371 39.4121C12.6953 39.0605 12.7656 38.7266 12.7656 38.375C12.7656 38.2344 12.7656 38.0938 12.7305 37.9531V37.9004C12.7305 37.7598 12.8359 37.6367 13.0293 37.5488C13.1172 37.5137 13.1875 37.4961 13.2578 37.4961C13.3809 37.4961 13.4688 37.5488 13.5391 37.6719C14.3301 39.5879 15.4375 41.0117 16.8613 41.9785C17.9863 42.7344 19.3398 43.1211 20.9043 43.1211C21.3262 43.1211 21.7656 43.0859 22.2227 43.0332C23.6289 42.8398 24.666 42.3125 25.3516 41.4688C25.6855 41.0645 25.8438 40.5898 25.8438 40.0801C25.8438 39.5176 25.6504 38.8848 25.2812 38.1992C24.9473 37.6543 24.4727 37.1621 23.8926 36.7227C23.3125 36.3008 22.6445 35.9141 21.9062 35.5449C21.1504 35.1758 20.3594 34.8242 19.5332 34.4551C18.4961 34.0156 17.4766 33.541 16.4746 33.0312C15.4551 32.5215 14.5234 31.959 13.6973 31.3086C12.8711 30.6582 12.2031 29.9023 11.6934 29.041C11.1836 28.1797 10.9199 27.1777 10.9199 26.0176C10.9199 24.5586 11.2891 23.3984 12.0098 22.5371C12.7305 21.6758 13.7148 21.043 14.9629 20.6562C16.1934 20.2871 17.5645 20.0938 19.0938 20.0938C20.5 20.0938 21.9414 20.2168 23.4355 20.4805C24.9297 20.7441 26.3008 21.2188 27.5664 21.9219ZM50.9805 20.0938C51.1914 20.0938 51.332 20.1816 51.4023 20.3398C51.4375 20.3926 51.4375 20.4453 51.4375 20.498C51.4375 20.6035 51.3848 20.709 51.2793 20.7969C51.2441 20.832 51.1914 20.8672 51.1211 20.9023C50.8223 21.1309 50.5234 21.3594 50.2422 21.623C49.9434 21.8867 49.7148 22.2031 49.5215 22.5723C49.3281 22.9414 49.2227 23.3984 49.2227 23.9258V36.1074C49.2227 38.9023 48.5547 40.8887 47.2188 42.1016C45.8652 43.3145 43.8965 43.9473 41.2773 44C41.0664 44 40.8555 44.0176 40.6621 44.0176C38.0254 44.0176 35.8809 43.3672 34.1934 42.0664C32.5234 40.7656 31.627 38.6211 31.5039 35.6328V24.0488C31.4863 23.4512 31.4336 22.8359 31.3633 22.2031C31.293 21.5879 31.2051 21.1133 31.0645 20.8145C31.0469 20.7266 31.0293 20.6562 31.0293 20.5859C31.0293 20.375 31.1523 20.2344 31.3809 20.1465C31.6094 20.1289 31.8203 20.1113 32.0488 20.1113C32.6289 20.1113 33.209 20.1992 33.7715 20.3574C34.0703 20.4277 34.3516 20.4805 34.5977 20.5156C34.7383 20.5332 34.8613 20.5332 34.9668 20.5332C35.0898 20.5332 35.2129 20.5332 35.3711 20.5156C35.5117 20.498 35.6523 20.4102 35.7578 20.252C35.8633 20.1465 35.9688 20.0938 36.0742 20.0938C36.1445 20.0938 36.2148 20.1113 36.2852 20.1465C36.4258 20.2168 36.4785 20.3223 36.4785 20.4805C36.4785 20.5508 36.4609 20.6387 36.4258 20.7441C36.1445 21.5527 35.9863 22.6602 35.9336 24.0664C35.9512 25.877 35.9512 27.6699 35.9512 29.4629C35.9863 31.748 35.9863 34.0332 35.9863 36.3008C35.9863 37.3203 36.1797 38.3574 36.5488 39.4121C36.9355 40.4844 37.498 41.3633 38.2715 42.0664C39.0449 42.7695 40.0293 43.1211 41.207 43.1211C43.6328 43.1035 45.4258 42.5762 46.5859 41.5215C47.7637 40.4844 48.3438 38.6738 48.3438 36.1074L48.3613 23.9434C48.3086 23.2227 48.0801 22.6426 47.6934 22.168C47.2891 21.7109 46.8672 21.3242 46.3926 20.9902L46.1465 20.7793C46.0586 20.6914 46.0059 20.6035 46.0059 20.498C46.0059 20.4453 46.041 20.375 46.0762 20.252C46.1289 20.1465 46.252 20.0938 46.4453 20.0938H50.9805ZM68.6289 21.9219C68.8574 22.0449 69.0859 22.1504 69.332 22.2383C69.5605 22.3438 69.666 22.4844 69.666 22.6777C69.666 22.748 69.6484 22.8359 69.6133 22.9238L69.5078 23.0645C69.0508 23.75 68.7168 24.3477 68.4883 24.8398C68.3301 25.1914 68.2598 25.5254 68.2598 25.877C68.2598 26.0176 68.2598 26.1582 68.2949 26.2988V26.3516C68.2949 26.4922 68.1895 26.6152 67.9785 26.7031C67.9082 26.7383 67.8379 26.7559 67.7676 26.7559C67.6445 26.7559 67.5566 26.6855 67.4863 26.5625C67.082 25.5781 66.6074 24.7695 66.0801 24.1191C65.5527 23.4863 65.0254 22.9766 64.4805 22.6074C62.8633 21.5527 61.1055 21.0254 59.207 21.0254C58.9785 21.0254 58.75 21.0254 58.5215 21.043C57.1328 21.1309 56.1133 21.5879 55.4277 22.4492C55.0762 22.8887 54.8828 23.3984 54.8828 23.9785C54.8828 24.5059 55.041 25.0684 55.3223 25.7012C55.832 26.6855 56.6758 27.5117 57.8359 28.1621C58.9785 28.8301 60.2617 29.4453 61.668 30.0254C61.8613 30.1133 62.0723 30.2012 62.2656 30.2891C63.25 30.6934 64.1992 31.1328 65.1133 31.6074C66.0273 32.082 66.8535 32.627 67.5918 33.2246C68.3301 33.8398 68.9277 34.5254 69.3672 35.3164C69.8066 36.1074 70.0352 37.0215 70.0352 38.0586C70.0352 39.4824 69.6309 40.625 68.8398 41.4863C68.0488 42.3652 66.9766 42.998 65.623 43.4023C64.2695 43.8066 62.7754 44 61.1055 44C59.7344 44 58.416 43.8945 57.1504 43.666C55.8848 43.4375 54.6543 42.998 53.459 42.3301C53.2305 42.207 53.002 42.084 52.7559 41.9961C52.5273 41.8906 52.4219 41.75 52.4219 41.5742C52.4219 41.5039 52.4395 41.416 52.4746 41.3281C52.5098 41.2754 52.5449 41.2227 52.5801 41.1699C53.0371 40.4844 53.3711 39.8867 53.5996 39.4121C53.7578 39.0605 53.8281 38.7266 53.8281 38.375C53.8281 38.2344 53.8281 38.0938 53.793 37.9531V37.9004C53.793 37.7598 53.8984 37.6367 54.0918 37.5488C54.1797 37.5137 54.25 37.4961 54.3203 37.4961C54.4434 37.4961 54.5312 37.5488 54.6016 37.6719C55.3926 39.5879 56.5 41.0117 57.9238 41.9785C59.0488 42.7344 60.4023 43.1211 61.9668 43.1211C62.3887 43.1211 62.8281 43.0859 63.2852 43.0332C64.6914 42.8398 65.7285 42.3125 66.4141 41.4688C66.748 41.0645 66.9062 40.5898 66.9062 40.0801C66.9062 39.5176 66.7129 38.8848 66.3438 38.1992C66.0098 37.6543 65.5352 37.1621 64.9551 36.7227C64.375 36.3008 63.707 35.9141 62.9688 35.5449C62.2129 35.1758 61.4219 34.8242 60.5957 34.4551C59.5586 34.0156 58.5391 33.541 57.5371 33.0312C56.5176 32.5215 55.5859 31.959 54.7598 31.3086C53.9336 30.6582 53.2656 29.9023 52.7559 29.041C52.2461 28.1797 51.9824 27.1777 51.9824 26.0176C51.9824 24.5586 52.3516 23.3984 53.0723 22.5371C53.793 21.6758 54.7773 21.043 56.0254 20.6562C57.2559 20.2871 58.627 20.0938 60.1562 20.0938C61.5625 20.0938 63.0039 20.2168 64.498 20.4805C65.9922 20.7441 67.3633 21.2188 68.6289 21.9219ZM77.2949 24.0664V32.416C77.3125 32.3984 77.3301 32.3457 77.3828 32.293C77.4355 32.2402 77.4883 32.1875 77.5762 32.0996C77.6465 32.0293 77.7344 31.959 77.8574 31.8711C77.9629 31.7832 78.0859 31.7129 78.2441 31.625C78.4023 31.5371 78.5781 31.4668 78.7891 31.3789C78.9824 31.3086 79.2109 31.2383 79.4746 31.1855C79.7207 31.1328 80.002 31.0801 80.3184 31.0273C80.6172 30.9922 80.9688 30.9746 81.3379 30.9746H83.3945C84.4316 30.9746 85.3105 30.7461 86.0137 30.3066C86.6992 29.8672 87.1387 29.1113 87.2969 28.0039C87.2969 27.2656 87.2969 26.5449 87.3145 25.8242V24.0488C87.2969 23.4512 87.2617 22.8359 87.1914 22.2031C87.1035 21.5879 86.998 21.1133 86.875 20.8145C86.8574 20.7266 86.8398 20.6562 86.8398 20.5859C86.8398 20.375 86.9629 20.2344 87.1914 20.1465C87.4023 20.1289 87.5957 20.1113 87.8066 20.1113C88.4043 20.1113 89.002 20.1992 89.582 20.3574C90.0391 20.4629 90.4434 20.5332 90.7773 20.5508H90.8301C91.1641 20.5508 91.4102 20.4453 91.5684 20.252C91.6738 20.1465 91.7617 20.0938 91.8848 20.0938C91.9551 20.0938 92.0254 20.1113 92.0957 20.1465C92.2363 20.2168 92.3066 20.3398 92.3066 20.498C92.3066 20.5684 92.2891 20.6562 92.2539 20.7617C91.9551 21.5527 91.7969 22.6602 91.7617 24.0664V40.0449C91.7793 40.6602 91.8145 41.2754 91.9023 41.8906C91.9727 42.5234 92.0781 42.998 92.2012 43.2969C92.2363 43.3848 92.2363 43.4551 92.2363 43.5254C92.2363 43.7188 92.1309 43.8594 91.8848 43.9473C91.6562 43.9648 91.4277 43.9824 91.1992 43.9824C90.6191 43.9824 90.0566 43.9121 89.4941 43.7539C89.0371 43.6309 88.6328 43.5781 88.2812 43.5605H88.1934C87.8945 43.5605 87.666 43.666 87.5078 43.8594C87.4199 43.9648 87.3145 44.0176 87.209 44.0176C87.1387 44.0176 87.0684 43.9824 86.9805 43.9473C86.8398 43.877 86.7695 43.7715 86.7695 43.6133C86.7695 43.543 86.7871 43.4551 86.8223 43.3496C86.9629 43.0332 87.0859 42.5586 87.1738 41.9082C87.2617 41.2754 87.2969 40.6602 87.3145 40.0449V35.2109C87.3145 33.5938 87.3145 31.9766 87.2969 30.377C87.2969 30.3945 87.2793 30.4121 87.2617 30.4297C87.2441 30.4473 87.209 30.4824 87.1914 30.5176C87.1562 30.5703 87.1211 30.6055 87.0684 30.6582C87.0156 30.7109 86.9453 30.7637 86.875 30.8164C86.8047 30.8691 86.7344 30.9395 86.6465 30.9922C86.5586 31.0449 86.4707 31.1152 86.3652 31.168C86.2422 31.2383 86.1367 31.291 86.0137 31.3438C85.8906 31.3965 85.75 31.4492 85.5918 31.502C85.4336 31.5547 85.2754 31.6074 85.0996 31.6426C84.9238 31.6953 84.7305 31.7305 84.5371 31.748C84.3262 31.7832 84.1152 31.8184 83.8867 31.8359C83.623 31.8535 83.3418 31.8535 83.0781 31.8535C82.8145 31.8535 82.5332 31.8535 82.2695 31.8359C82.0586 31.8359 81.8477 31.8184 81.6191 31.8184C81.1973 31.8184 80.7754 31.8359 80.3359 31.8711C79.5098 31.9766 78.877 32.2227 78.4375 32.627C77.998 33.0312 77.7168 33.4531 77.5586 33.8926C77.4004 34.3496 77.3125 34.7012 77.2949 34.9297V40.0449C77.3125 41.4336 77.4707 42.5059 77.7344 43.2969C77.7695 43.3848 77.7695 43.4551 77.7695 43.5254C77.7695 43.7188 77.6641 43.8594 77.418 43.9473C77.1895 43.9648 76.9609 43.9824 76.7324 43.9824C76.1523 43.9824 75.5898 43.9121 75.0273 43.7539C74.5703 43.6309 74.166 43.5781 73.8145 43.5605H73.7266C73.4277 43.5605 73.1992 43.666 73.041 43.8594C72.9531 43.9648 72.8477 44.0176 72.7246 44.0176C72.6543 44.0176 72.584 43.9824 72.4961 43.9473C72.373 43.8945 72.3027 43.7715 72.3027 43.6309C72.3027 43.543 72.3203 43.4551 72.3555 43.3496C72.6543 42.541 72.8125 41.4336 72.8477 40.0449V24.0488C72.8301 22.6777 72.6719 21.6055 72.4082 20.8145C72.3906 20.7266 72.373 20.6562 72.373 20.5859C72.373 20.375 72.4961 20.2344 72.7246 20.1465C72.9355 20.1289 73.1289 20.1113 73.3398 20.1113C73.9375 20.1113 74.5352 20.1992 75.1152 20.3574C75.5723 20.4629 75.9766 20.5332 76.3105 20.5508H76.3633C76.6973 20.5508 76.9434 20.4453 77.1016 20.252C77.207 20.1465 77.2949 20.0938 77.418 20.0938C77.4883 20.0938 77.5586 20.1113 77.6289 20.1465C77.7695 20.2168 77.8398 20.3398 77.8398 20.498C77.8398 20.5684 77.8223 20.6562 77.7871 20.7617C77.4883 21.5527 77.3301 22.6602 77.2949 24.0664ZM100.129 40.0449C100.164 41.4336 100.305 42.5059 100.568 43.2969C100.604 43.3848 100.604 43.4551 100.604 43.5254C100.604 43.7188 100.498 43.8594 100.252 43.9473C100.023 43.9648 99.7949 43.9824 99.5664 43.9824C98.9863 43.9824 98.4238 43.9121 97.8613 43.7539C97.4043 43.6309 97.0879 43.5781 96.8945 43.5605C96.7188 43.5605 96.5957 43.5605 96.5781 43.5605C96.2617 43.5605 96.0332 43.666 95.875 43.8594C95.7871 43.9648 95.6816 44.0176 95.5762 44.0176C95.5059 44.0176 95.4355 43.9824 95.3477 43.9473C95.2246 43.8945 95.1543 43.7715 95.1543 43.6309C95.1543 43.543 95.1719 43.4551 95.207 43.3496C95.4883 42.541 95.6465 41.4336 95.6816 40.0449V35.0879C95.6641 31.4141 95.6641 27.7227 95.6641 24.0488C95.6465 22.6777 95.4883 21.6055 95.2246 20.8145C95.207 20.7266 95.1895 20.6562 95.1895 20.5859C95.1895 20.375 95.3125 20.2344 95.541 20.1465C95.752 20.1289 95.9453 20.1113 96.1562 20.1113C96.7539 20.1113 97.3516 20.1992 97.9316 20.3574C98.2305 20.4277 98.4941 20.4805 98.7051 20.498C98.8984 20.5332 99.0742 20.5508 99.2148 20.5508C99.3027 20.5508 99.3906 20.5508 99.4609 20.5332C99.6543 20.498 99.7949 20.4102 99.918 20.252C100.023 20.1465 100.129 20.0938 100.234 20.0938C100.305 20.0938 100.393 20.1113 100.463 20.1465C100.604 20.2168 100.656 20.3223 100.656 20.4805C100.656 20.5684 100.639 20.6562 100.604 20.7617C100.305 21.5527 100.146 22.6602 100.111 24.0664V29.4277C100.129 32.9785 100.129 36.5117 100.129 40.0449ZM104.91 44.0176C104.33 44.0176 103.82 43.8066 103.398 43.4199C102.994 43.0156 102.783 42.5234 102.783 41.9609C102.783 41.3984 102.994 40.9238 103.398 40.5195C103.82 40.1152 104.33 39.9219 104.91 39.9219C105.508 39.9219 106 40.1152 106.422 40.5195C106.826 40.9238 107.037 41.3984 107.037 41.9609C107.037 42.5234 106.826 43.0156 106.422 43.4199C106 43.8066 105.508 44.0176 104.91 44.0176ZM114.666 31.9414V39.957C114.684 40.5547 114.719 41.1699 114.807 41.7852C114.877 42.418 114.982 42.8926 115.105 43.1914C115.141 43.2793 115.141 43.3496 115.141 43.4199C115.141 43.6309 115.035 43.7715 114.789 43.8594C114.578 43.877 114.35 43.8945 114.139 43.8945C113.541 43.8945 112.961 43.8066 112.398 43.6484C112.1 43.5781 111.818 43.5254 111.555 43.4902C111.432 43.4727 111.309 43.4551 111.186 43.4551C111.08 43.4551 110.957 43.4727 110.799 43.5078C110.658 43.5254 110.535 43.6133 110.412 43.7539C110.324 43.8594 110.219 43.9121 110.096 43.9121C110.025 43.9121 109.955 43.8945 109.867 43.8594C109.744 43.7891 109.674 43.6836 109.674 43.5254C109.674 43.4551 109.691 43.3672 109.727 43.2617C110.025 42.4531 110.184 41.3457 110.219 39.957V34.2969C110.201 30.8516 110.201 27.4062 110.201 23.9609C110.184 23.3457 110.131 22.7305 110.061 22.1152C109.99 21.5 109.885 21.0254 109.762 20.709C109.744 20.6211 109.727 20.5508 109.727 20.4805C109.727 20.2871 109.85 20.1289 110.078 20.0586C110.307 20.041 110.518 20.0234 110.746 20.0234C111.326 20.0234 111.906 20.1113 112.469 20.2695C112.768 20.3223 113.031 20.375 113.295 20.4277C113.436 20.4453 113.559 20.4453 113.664 20.4453C113.787 20.4453 113.91 20.4453 114.068 20.4102C114.209 20.3926 114.332 20.3047 114.455 20.1465C114.543 20.041 114.648 19.9883 114.754 19.9883C114.824 19.9883 114.912 20.0234 114.982 20.0586C115.123 20.1289 115.176 20.2344 115.176 20.3926C115.176 20.4629 115.158 20.5508 115.123 20.6562C115 20.9727 114.895 21.4473 114.807 22.0801C114.719 22.7305 114.648 23.3457 114.631 23.9609C114.648 24.9805 114.648 26 114.648 27.0195C114.666 28.25 114.666 29.4805 114.666 30.6934C117.689 28.4961 120.924 26.123 124.369 23.5566C125.389 22.8008 126.303 22.1328 127.111 21.5352C127.305 21.3594 127.41 21.2012 127.41 21.043C127.41 20.9199 127.34 20.7969 127.182 20.6738C127.094 20.5859 127.059 20.498 127.059 20.3926C127.059 20.3398 127.076 20.2695 127.129 20.1641C127.182 20.0586 127.305 20.0059 127.498 20.0059L130.064 19.9883C130.293 20.0059 130.451 20.1113 130.504 20.2871C130.521 20.3223 130.521 20.3574 130.521 20.3926C130.521 20.5332 130.434 20.6387 130.275 20.7266C129.344 21.166 128.096 21.9395 126.531 23.0645L118.252 29.1816C118.445 29.4102 118.639 29.6211 118.832 29.8496C122.646 34.2969 126.479 38.7441 130.311 43.1738C130.398 43.2969 130.451 43.4199 130.451 43.543C130.451 43.5957 130.434 43.666 130.416 43.7188C130.363 43.8594 130.258 43.9297 130.117 43.9297H130.029C129.484 43.7363 128.746 43.6309 127.85 43.5781H127.551C126.76 43.5781 126.004 43.7363 125.301 44.0703C125.23 44.0879 125.16 44.1055 125.107 44.1055C124.896 44.1055 124.721 43.9824 124.615 43.7188C124.281 43.0332 123.016 41.4512 120.854 38.9375C118.674 36.4414 116.828 34.3672 115.334 32.6973C115.07 32.3984 114.842 32.1348 114.666 31.9414ZM137.623 43.1738C138.379 43.1738 139.047 42.875 139.592 42.2773C140.137 41.6797 140.594 40.8887 140.928 39.9219C141.262 38.9551 141.49 37.8828 141.613 36.7227C141.684 36.1074 141.701 35.5098 141.701 34.8945C141.701 34.3496 141.666 33.6465 141.596 32.7852C141.508 31.9238 141.314 31.0098 140.98 30.043C140.646 29.0762 140.207 28.2852 139.662 27.6875C139.1 27.1074 138.414 26.8086 137.623 26.8086C136.832 26.8086 136.146 27.1074 135.602 27.6875C135.039 28.2852 134.6 29.0762 134.283 30.043C133.949 31.0098 133.738 32.082 133.633 33.2422C133.58 33.7871 133.562 34.3496 133.562 34.8945C133.562 35.5098 133.598 36.248 133.686 37.127C133.773 38.0234 134.002 38.9551 134.336 39.9219C134.67 40.8887 135.127 41.6797 135.672 42.2773C136.217 42.875 136.867 43.1738 137.623 43.1738ZM137.641 44.0352C136.041 44.0352 134.67 43.7012 133.51 43.0332C132.35 42.3828 131.418 41.5039 130.715 40.4316C130.012 39.3594 129.537 38.1992 129.273 36.916C129.15 36.2305 129.08 35.5625 129.08 34.8945C129.08 34.2793 129.168 33.5059 129.326 32.5566C129.484 31.6074 129.906 30.5879 130.592 29.5156C131.277 28.4434 132.209 27.582 133.387 26.9316C134.564 26.2812 135.971 25.9473 137.641 25.9473C139.311 25.9473 140.717 26.2812 141.895 26.9316C143.072 27.582 144.004 28.4434 144.689 29.5156C145.375 30.5879 145.832 31.7832 146.061 33.0664C146.166 33.6641 146.201 34.2441 146.201 34.8418C146.201 35.5273 146.113 36.3711 145.92 37.3555C145.727 38.3398 145.287 39.3594 144.584 40.4316C143.863 41.5039 142.932 42.3828 141.771 43.0332C140.611 43.7012 139.24 44.0352 137.641 44.0352Z" fill="black"/>
</svg>
