<svg width="150" height="28" viewBox="0 0 150 28" fill="none" xmlns="http://www.w3.org/2000/svg">
<path d="M18.5859 2.46875C18.8398 2.60547 19.0938 2.72266 19.3672 2.82031C19.6211 2.9375 19.7383 3.09375 19.7383 3.30859C19.7383 3.38672 19.7188 3.48438 19.6797 3.58203L19.5625 3.73828C19.0547 4.5 18.6836 5.16406 18.4297 5.71094C18.2539 6.10156 18.1758 6.47266 18.1758 6.86328C18.1758 7.01953 18.1758 7.17578 18.2148 7.33203V7.39062C18.2148 7.54688 18.0977 7.68359 17.8633 7.78125C17.7852 7.82031 17.707 7.83984 17.6289 7.83984C17.4922 7.83984 17.3945 7.76172 17.3164 7.625C16.8672 6.53125 16.3398 5.63281 15.7539 4.91016C15.168 4.20703 14.582 3.64062 13.9766 3.23047C12.1797 2.05859 10.2266 1.47266 8.11719 1.47266C7.86328 1.47266 7.60938 1.47266 7.35547 1.49219C5.8125 1.58984 4.67969 2.09766 3.91797 3.05469C3.52734 3.54297 3.3125 4.10938 3.3125 4.75391C3.3125 5.33984 3.48828 5.96484 3.80078 6.66797C4.36719 7.76172 5.30469 8.67969 6.59375 9.40234C7.86328 10.1445 9.28906 10.8281 10.8516 11.4727C11.0664 11.5703 11.3008 11.668 11.5156 11.7656C12.6094 12.2148 13.6641 12.7031 14.6797 13.2305C15.6953 13.7578 16.6133 14.3633 17.4336 15.0273C18.2539 15.7109 18.918 16.4727 19.4062 17.3516C19.8945 18.2305 20.1484 19.2461 20.1484 20.3984C20.1484 21.9805 19.6992 23.25 18.8203 24.207C17.9414 25.1836 16.75 25.8867 15.2461 26.3359C13.7422 26.7852 12.082 27 10.2266 27C8.70312 27 7.23828 26.8828 5.83203 26.6289C4.42578 26.375 3.05859 25.8867 1.73047 25.1445C1.47656 25.0078 1.22266 24.8711 0.949219 24.7734C0.695312 24.6562 0.578125 24.5 0.578125 24.3047C0.578125 24.2266 0.597656 24.1289 0.636719 24.0312C0.675781 23.9727 0.714844 23.9141 0.753906 23.8555C1.26172 23.0938 1.63281 22.4297 1.88672 21.9023C2.0625 21.5117 2.14062 21.1406 2.14062 20.75C2.14062 20.5938 2.14062 20.4375 2.10156 20.2812V20.2227C2.10156 20.0664 2.21875 19.9297 2.43359 19.832C2.53125 19.793 2.60938 19.7734 2.6875 19.7734C2.82422 19.7734 2.92188 19.832 3 19.9688C3.87891 22.0977 5.10938 23.6797 6.69141 24.7539C7.94141 25.5938 9.44531 26.0234 11.1836 26.0234C11.6523 26.0234 12.1406 25.9844 12.6484 25.9258C14.2109 25.7109 15.3633 25.125 16.125 24.1875C16.4961 23.7383 16.6719 23.2109 16.6719 22.6445C16.6719 22.0195 16.457 21.3164 16.0469 20.5547C15.6758 19.9492 15.1484 19.4023 14.5039 18.9141C13.8594 18.4453 13.1172 18.0156 12.2969 17.6055C11.457 17.1953 10.5781 16.8047 9.66016 16.3945C8.50781 15.9062 7.375 15.3789 6.26172 14.8125C5.12891 14.2461 4.09375 13.6211 3.17578 12.8984C2.25781 12.1758 1.51562 11.3359 0.949219 10.3789C0.382812 9.42188 0.0898438 8.30859 0.0898438 7.01953C0.0898438 5.39844 0.5 4.10938 1.30078 3.15234C2.10156 2.19531 3.19531 1.49219 4.58203 1.0625C5.94922 0.652344 7.47266 0.4375 9.17188 0.4375C10.7344 0.4375 12.3359 0.574219 13.9961 0.867188C15.6562 1.16016 17.1797 1.6875 18.5859 2.46875ZM44.6016 0.4375C44.8359 0.4375 44.9922 0.535156 45.0703 0.710938C45.1094 0.769531 45.1094 0.828125 45.1094 0.886719C45.1094 1.00391 45.0508 1.12109 44.9336 1.21875C44.8945 1.25781 44.8359 1.29688 44.7578 1.33594C44.4258 1.58984 44.0938 1.84375 43.7812 2.13672C43.4492 2.42969 43.1953 2.78125 42.9805 3.19141C42.7656 3.60156 42.6484 4.10938 42.6484 4.69531V18.2305C42.6484 21.3359 41.9062 23.543 40.4219 24.8906C38.918 26.2383 36.7305 26.9414 33.8203 27C33.5859 27 33.3516 27.0195 33.1367 27.0195C30.207 27.0195 27.8242 26.2969 25.9492 24.8516C24.0938 23.4062 23.0977 21.0234 22.9609 17.7031V4.83203C22.9414 4.16797 22.8828 3.48438 22.8047 2.78125C22.7266 2.09766 22.6289 1.57031 22.4727 1.23828C22.4531 1.14062 22.4336 1.0625 22.4336 0.984375C22.4336 0.75 22.5703 0.59375 22.8242 0.496094C23.0781 0.476562 23.3125 0.457031 23.5664 0.457031C24.2109 0.457031 24.8555 0.554688 25.4805 0.730469C25.8125 0.808594 26.125 0.867188 26.3984 0.90625C26.5547 0.925781 26.6914 0.925781 26.8086 0.925781C26.9453 0.925781 27.082 0.925781 27.2578 0.90625C27.4141 0.886719 27.5703 0.789062 27.6875 0.613281C27.8047 0.496094 27.9219 0.4375 28.0391 0.4375C28.1172 0.4375 28.1953 0.457031 28.2734 0.496094C28.4297 0.574219 28.4883 0.691406 28.4883 0.867188C28.4883 0.945312 28.4688 1.04297 28.4297 1.16016C28.1172 2.05859 27.9414 3.28906 27.8828 4.85156C27.9023 6.86328 27.9023 8.85547 27.9023 10.8477C27.9414 13.3867 27.9414 15.9258 27.9414 18.4453C27.9414 19.5781 28.1562 20.7305 28.5664 21.9023C28.9961 23.0938 29.6211 24.0703 30.4805 24.8516C31.3398 25.6328 32.4336 26.0234 33.7422 26.0234C36.4375 26.0039 38.4297 25.418 39.7188 24.2461C41.0273 23.0938 41.6719 21.082 41.6719 18.2305L41.6914 4.71484C41.6328 3.91406 41.3789 3.26953 40.9492 2.74219C40.5 2.23438 40.0312 1.80469 39.5039 1.43359L39.2305 1.19922C39.1328 1.10156 39.0742 1.00391 39.0742 0.886719C39.0742 0.828125 39.1133 0.75 39.1523 0.613281C39.2109 0.496094 39.3477 0.4375 39.5625 0.4375H44.6016ZM64.2109 2.46875C64.4648 2.60547 64.7188 2.72266 64.9922 2.82031C65.2461 2.9375 65.3633 3.09375 65.3633 3.30859C65.3633 3.38672 65.3438 3.48438 65.3047 3.58203L65.1875 3.73828C64.6797 4.5 64.3086 5.16406 64.0547 5.71094C63.8789 6.10156 63.8008 6.47266 63.8008 6.86328C63.8008 7.01953 63.8008 7.17578 63.8398 7.33203V7.39062C63.8398 7.54688 63.7227 7.68359 63.4883 7.78125C63.4102 7.82031 63.332 7.83984 63.2539 7.83984C63.1172 7.83984 63.0195 7.76172 62.9414 7.625C62.4922 6.53125 61.9648 5.63281 61.3789 4.91016C60.793 4.20703 60.207 3.64062 59.6016 3.23047C57.8047 2.05859 55.8516 1.47266 53.7422 1.47266C53.4883 1.47266 53.2344 1.47266 52.9805 1.49219C51.4375 1.58984 50.3047 2.09766 49.543 3.05469C49.1523 3.54297 48.9375 4.10938 48.9375 4.75391C48.9375 5.33984 49.1133 5.96484 49.4258 6.66797C49.9922 7.76172 50.9297 8.67969 52.2188 9.40234C53.4883 10.1445 54.9141 10.8281 56.4766 11.4727C56.6914 11.5703 56.9258 11.668 57.1406 11.7656C58.2344 12.2148 59.2891 12.7031 60.3047 13.2305C61.3203 13.7578 62.2383 14.3633 63.0586 15.0273C63.8789 15.7109 64.543 16.4727 65.0312 17.3516C65.5195 18.2305 65.7734 19.2461 65.7734 20.3984C65.7734 21.9805 65.3242 23.25 64.4453 24.207C63.5664 25.1836 62.375 25.8867 60.8711 26.3359C59.3672 26.7852 57.707 27 55.8516 27C54.3281 27 52.8633 26.8828 51.457 26.6289C50.0508 26.375 48.6836 25.8867 47.3555 25.1445C47.1016 25.0078 46.8477 24.8711 46.5742 24.7734C46.3203 24.6562 46.2031 24.5 46.2031 24.3047C46.2031 24.2266 46.2227 24.1289 46.2617 24.0312C46.3008 23.9727 46.3398 23.9141 46.3789 23.8555C46.8867 23.0938 47.2578 22.4297 47.5117 21.9023C47.6875 21.5117 47.7656 21.1406 47.7656 20.75C47.7656 20.5938 47.7656 20.4375 47.7266 20.2812V20.2227C47.7266 20.0664 47.8438 19.9297 48.0586 19.832C48.1562 19.793 48.2344 19.7734 48.3125 19.7734C48.4492 19.7734 48.5469 19.832 48.625 19.9688C49.5039 22.0977 50.7344 23.6797 52.3164 24.7539C53.5664 25.5938 55.0703 26.0234 56.8086 26.0234C57.2773 26.0234 57.7656 25.9844 58.2734 25.9258C59.8359 25.7109 60.9883 25.125 61.75 24.1875C62.1211 23.7383 62.2969 23.2109 62.2969 22.6445C62.2969 22.0195 62.082 21.3164 61.6719 20.5547C61.3008 19.9492 60.7734 19.4023 60.1289 18.9141C59.4844 18.4453 58.7422 18.0156 57.9219 17.6055C57.082 17.1953 56.2031 16.8047 55.2852 16.3945C54.1328 15.9062 53 15.3789 51.8867 14.8125C50.7539 14.2461 49.7188 13.6211 48.8008 12.8984C47.8828 12.1758 47.1406 11.3359 46.5742 10.3789C46.0078 9.42188 45.7148 8.30859 45.7148 7.01953C45.7148 5.39844 46.125 4.10938 46.9258 3.15234C47.7266 2.19531 48.8203 1.49219 50.207 1.0625C51.5742 0.652344 53.0977 0.4375 54.7969 0.4375C56.3594 0.4375 57.9609 0.574219 59.6211 0.867188C61.2812 1.16016 62.8047 1.6875 64.2109 2.46875ZM73.8398 4.85156V14.1289C73.8594 14.1094 73.8789 14.0508 73.9375 13.9922C73.9961 13.9336 74.0547 13.875 74.1523 13.7773C74.2305 13.6992 74.3281 13.6211 74.4648 13.5234C74.582 13.4258 74.7188 13.3477 74.8945 13.25C75.0703 13.1523 75.2656 13.0742 75.5 12.9766C75.7148 12.8984 75.9688 12.8203 76.2617 12.7617C76.5352 12.7031 76.8477 12.6445 77.1992 12.5859C77.5312 12.5469 77.9219 12.5273 78.332 12.5273H80.6172C81.7695 12.5273 82.7461 12.2734 83.5273 11.7852C84.2891 11.2969 84.7773 10.457 84.9531 9.22656C84.9531 8.40625 84.9531 7.60547 84.9727 6.80469V4.83203C84.9531 4.16797 84.9141 3.48438 84.8359 2.78125C84.7383 2.09766 84.6211 1.57031 84.4844 1.23828C84.4648 1.14062 84.4453 1.0625 84.4453 0.984375C84.4453 0.75 84.582 0.59375 84.8359 0.496094C85.0703 0.476562 85.2852 0.457031 85.5195 0.457031C86.1836 0.457031 86.8477 0.554688 87.4922 0.730469C88 0.847656 88.4492 0.925781 88.8203 0.945312H88.8789C89.25 0.945312 89.5234 0.828125 89.6992 0.613281C89.8164 0.496094 89.9141 0.4375 90.0508 0.4375C90.1289 0.4375 90.207 0.457031 90.2852 0.496094C90.4414 0.574219 90.5195 0.710938 90.5195 0.886719C90.5195 0.964844 90.5 1.0625 90.4609 1.17969C90.1289 2.05859 89.9531 3.28906 89.9141 4.85156V22.6055C89.9336 23.2891 89.9727 23.9727 90.0703 24.6562C90.1484 25.3594 90.2656 25.8867 90.4023 26.2188C90.4414 26.3164 90.4414 26.3945 90.4414 26.4727C90.4414 26.6875 90.3242 26.8438 90.0508 26.9414C89.7969 26.9609 89.543 26.9805 89.2891 26.9805C88.6445 26.9805 88.0195 26.9023 87.3945 26.7266C86.8867 26.5898 86.4375 26.5312 86.0469 26.5117H85.9492C85.6172 26.5117 85.3633 26.6289 85.1875 26.8438C85.0898 26.9609 84.9727 27.0195 84.8555 27.0195C84.7773 27.0195 84.6992 26.9805 84.6016 26.9414C84.4453 26.8633 84.3672 26.7461 84.3672 26.5703C84.3672 26.4922 84.3867 26.3945 84.4258 26.2773C84.582 25.9258 84.7188 25.3984 84.8164 24.6758C84.9141 23.9727 84.9531 23.2891 84.9727 22.6055V17.2344C84.9727 15.4375 84.9727 13.6406 84.9531 11.8633C84.9531 11.8828 84.9336 11.9023 84.9141 11.9219C84.8945 11.9414 84.8555 11.9805 84.8359 12.0195C84.7969 12.0781 84.7578 12.1172 84.6992 12.1758C84.6406 12.2344 84.5625 12.293 84.4844 12.3516C84.4062 12.4102 84.3281 12.4883 84.2305 12.5469C84.1328 12.6055 84.0352 12.6836 83.918 12.7422C83.7812 12.8203 83.6641 12.8789 83.5273 12.9375C83.3906 12.9961 83.2344 13.0547 83.0586 13.1133C82.8828 13.1719 82.707 13.2305 82.5117 13.2695C82.3164 13.3281 82.1016 13.3672 81.8867 13.3867C81.6523 13.4258 81.418 13.4648 81.1641 13.4844C80.8711 13.5039 80.5586 13.5039 80.2656 13.5039C79.9727 13.5039 79.6602 13.5039 79.3672 13.4844C79.1328 13.4844 78.8984 13.4648 78.6445 13.4648C78.1758 13.4648 77.707 13.4844 77.2188 13.5234C76.3008 13.6406 75.5977 13.9141 75.1094 14.3633C74.6211 14.8125 74.3086 15.2812 74.1328 15.7695C73.957 16.2773 73.8594 16.668 73.8398 16.9219V22.6055C73.8594 24.1484 74.0352 25.3398 74.3281 26.2188C74.3672 26.3164 74.3672 26.3945 74.3672 26.4727C74.3672 26.6875 74.25 26.8438 73.9766 26.9414C73.7227 26.9609 73.4688 26.9805 73.2148 26.9805C72.5703 26.9805 71.9453 26.9023 71.3203 26.7266C70.8125 26.5898 70.3633 26.5312 69.9727 26.5117H69.875C69.543 26.5117 69.2891 26.6289 69.1133 26.8438C69.0156 26.9609 68.8984 27.0195 68.7617 27.0195C68.6836 27.0195 68.6055 26.9805 68.5078 26.9414C68.3711 26.8828 68.293 26.7461 68.293 26.5898C68.293 26.4922 68.3125 26.3945 68.3516 26.2773C68.6836 25.3789 68.8594 24.1484 68.8984 22.6055V4.83203C68.8789 3.30859 68.7031 2.11719 68.4102 1.23828C68.3906 1.14062 68.3711 1.0625 68.3711 0.984375C68.3711 0.75 68.5078 0.59375 68.7617 0.496094C68.9961 0.476562 69.2109 0.457031 69.4453 0.457031C70.1094 0.457031 70.7734 0.554688 71.418 0.730469C71.9258 0.847656 72.375 0.925781 72.7461 0.945312H72.8047C73.1758 0.945312 73.4492 0.828125 73.625 0.613281C73.7422 0.496094 73.8398 0.4375 73.9766 0.4375C74.0547 0.4375 74.1328 0.457031 74.2109 0.496094C74.3672 0.574219 74.4453 0.710938 74.4453 0.886719C74.4453 0.964844 74.4258 1.0625 74.3867 1.17969C74.0547 2.05859 73.8789 3.28906 73.8398 4.85156ZM99.2109 22.6055C99.25 24.1484 99.4062 25.3398 99.6992 26.2188C99.7383 26.3164 99.7383 26.3945 99.7383 26.4727C99.7383 26.6875 99.6211 26.8438 99.3477 26.9414C99.0938 26.9609 98.8398 26.9805 98.5859 26.9805C97.9414 26.9805 97.3164 26.9023 96.6914 26.7266C96.1836 26.5898 95.832 26.5312 95.6172 26.5117C95.4219 26.5117 95.2852 26.5117 95.2656 26.5117C94.9141 26.5117 94.6602 26.6289 94.4844 26.8438C94.3867 26.9609 94.2695 27.0195 94.1523 27.0195C94.0742 27.0195 93.9961 26.9805 93.8984 26.9414C93.7617 26.8828 93.6836 26.7461 93.6836 26.5898C93.6836 26.4922 93.7031 26.3945 93.7422 26.2773C94.0547 25.3789 94.2305 24.1484 94.2695 22.6055V17.0977C94.25 13.0156 94.25 8.91406 94.25 4.83203C94.2305 3.30859 94.0547 2.11719 93.7617 1.23828C93.7422 1.14062 93.7227 1.0625 93.7227 0.984375C93.7227 0.75 93.8594 0.59375 94.1133 0.496094C94.3477 0.476562 94.5625 0.457031 94.7969 0.457031C95.4609 0.457031 96.125 0.554688 96.7695 0.730469C97.1016 0.808594 97.3945 0.867188 97.6289 0.886719C97.8438 0.925781 98.0391 0.945312 98.1953 0.945312C98.293 0.945312 98.3906 0.945312 98.4688 0.925781C98.6836 0.886719 98.8398 0.789062 98.9766 0.613281C99.0938 0.496094 99.2109 0.4375 99.3281 0.4375C99.4062 0.4375 99.5039 0.457031 99.582 0.496094C99.7383 0.574219 99.7969 0.691406 99.7969 0.867188C99.7969 0.964844 99.7773 1.0625 99.7383 1.17969C99.4062 2.05859 99.2305 3.28906 99.1914 4.85156V10.8086C99.2109 14.7539 99.2109 18.6797 99.2109 22.6055ZM104.523 27.0195C103.879 27.0195 103.312 26.7852 102.844 26.3555C102.395 25.9062 102.16 25.3594 102.16 24.7344C102.16 24.1094 102.395 23.582 102.844 23.1328C103.312 22.6836 103.879 22.4688 104.523 22.4688C105.188 22.4688 105.734 22.6836 106.203 23.1328C106.652 23.582 106.887 24.1094 106.887 24.7344C106.887 25.3594 106.652 25.9062 106.203 26.3555C105.734 26.7852 105.188 27.0195 104.523 27.0195ZM129.172 2.37109L129.191 2.39062C129.426 2.52734 129.68 2.64453 129.934 2.74219C130.188 2.85938 130.324 3.01562 130.324 3.21094C130.324 3.30859 130.305 3.38672 130.266 3.48438C130.109 3.73828 129.953 3.95312 129.816 4.16797C129.406 4.75391 129.113 5.26172 128.918 5.69141C128.781 5.98438 128.723 6.27734 128.723 6.58984C128.723 6.74609 128.742 6.88281 128.762 7.03906V7.09766C128.762 7.27344 128.645 7.41016 128.43 7.50781C128.352 7.54688 128.273 7.56641 128.195 7.56641C128.059 7.56641 127.941 7.48828 127.863 7.35156C127.609 6.58984 127.219 5.73047 126.672 4.8125C126.105 3.89453 125.461 3.11328 124.699 2.42969C123.938 1.76562 123.098 1.43359 122.219 1.41406C120.52 1.51172 119.074 2.29297 117.902 3.75781C116.711 5.24219 115.852 7.09766 115.324 9.32422C114.992 10.7695 114.816 12.2344 114.816 13.7188C114.816 14.5 114.914 15.6523 115.09 17.1758C115.266 18.7188 115.969 20.3203 117.16 22.0195C118.352 23.7188 120.09 24.7734 122.355 25.2227C122.609 25.2617 122.883 25.2812 123.137 25.2812C124.016 25.2812 124.992 25.0273 126.066 24.5195C127.121 24.0312 128.254 23.2305 129.465 22.1172C129.602 22.0195 129.738 21.9805 129.855 21.9805C129.992 21.9805 130.109 22.0391 130.227 22.1562C130.324 22.2734 130.383 22.3906 130.383 22.5078C130.383 22.6445 130.324 22.8008 130.188 22.957C129.191 24.0312 127.98 24.9688 126.535 25.7695C125.09 26.5898 123.43 27 121.574 27C119.602 26.9414 117.863 26.5117 116.398 25.7305C114.934 24.9688 113.703 23.9336 112.727 22.6641C111.73 21.3945 111.008 19.9883 110.52 18.4258C110.051 16.9023 109.816 15.3398 109.816 13.7188C109.816 13.6602 109.816 13.2109 109.836 12.3711C109.836 11.5117 110.09 10.3008 110.617 8.73828C111.125 7.19531 111.887 5.78906 112.902 4.53906C113.898 3.30859 115.168 2.3125 116.672 1.57031C118.176 0.828125 119.914 0.457031 121.926 0.457031C123.312 0.457031 124.543 0.59375 125.656 0.867188C126.75 1.16016 127.922 1.64844 129.172 2.37109ZM140.402 26.082C141.242 26.082 141.984 25.75 142.59 25.0859C143.195 24.4219 143.703 23.543 144.074 22.4688C144.445 21.3945 144.699 20.2031 144.836 18.9141C144.914 18.2305 144.934 17.5664 144.934 16.8828C144.934 16.2773 144.895 15.4961 144.816 14.5391C144.719 13.582 144.504 12.5664 144.133 11.4922C143.762 10.418 143.273 9.53906 142.668 8.875C142.043 8.23047 141.281 7.89844 140.402 7.89844C139.523 7.89844 138.762 8.23047 138.156 8.875C137.531 9.53906 137.043 10.418 136.691 11.4922C136.32 12.5664 136.086 13.7578 135.969 15.0469C135.91 15.6523 135.891 16.2773 135.891 16.8828C135.891 17.5664 135.93 18.3867 136.027 19.3633C136.125 20.3594 136.379 21.3945 136.75 22.4688C137.121 23.543 137.629 24.4219 138.234 25.0859C138.84 25.75 139.562 26.082 140.402 26.082ZM140.422 27.0391C138.645 27.0391 137.121 26.668 135.832 25.9258C134.543 25.2031 133.508 24.2266 132.727 23.0352C131.945 21.8438 131.418 20.5547 131.125 19.1289C130.988 18.3672 130.91 17.625 130.91 16.8828C130.91 16.1992 131.008 15.3398 131.184 14.2852C131.359 13.2305 131.828 12.0977 132.59 10.9062C133.352 9.71484 134.387 8.75781 135.695 8.03516C137.004 7.3125 138.566 6.94141 140.422 6.94141C142.277 6.94141 143.84 7.3125 145.148 8.03516C146.457 8.75781 147.492 9.71484 148.254 10.9062C149.016 12.0977 149.523 13.4258 149.777 14.8516C149.895 15.5156 149.934 16.1602 149.934 16.8242C149.934 17.5859 149.836 18.5234 149.621 19.6172C149.406 20.7109 148.918 21.8438 148.137 23.0352C147.336 24.2266 146.301 25.2031 145.012 25.9258C143.723 26.668 142.199 27.0391 140.422 27.0391Z" fill="#E35052"/>
</svg>
