<svg width="215" height="40" viewBox="0 0 215 40" fill="none" xmlns="http://www.w3.org/2000/svg">
<path d="M27.0635 4.04297C27.4253 4.23779 27.7871 4.40479 28.1768 4.54395C28.5386 4.71094 28.7056 4.93359 28.7056 5.23975C28.7056 5.35107 28.6777 5.49023 28.6221 5.62939L28.4551 5.85205C27.7314 6.9375 27.2026 7.88379 26.8408 8.66309C26.5903 9.21973 26.479 9.74854 26.479 10.3052C26.479 10.5278 26.479 10.7505 26.5347 10.9731V11.0566C26.5347 11.2793 26.3677 11.4741 26.0337 11.6133C25.9224 11.6689 25.811 11.6968 25.6997 11.6968C25.5049 11.6968 25.3657 11.5854 25.2544 11.3906C24.6143 9.83203 23.8628 8.55176 23.0278 7.52197C22.1929 6.52002 21.3579 5.71289 20.4951 5.12842C17.9346 3.4585 15.1514 2.62354 12.1455 2.62354C11.7837 2.62354 11.4219 2.62354 11.0601 2.65137C8.86133 2.79053 7.24707 3.51416 6.16162 4.87793C5.60498 5.57373 5.29883 6.38086 5.29883 7.29932C5.29883 8.13428 5.54932 9.0249 5.99463 10.0269C6.80176 11.5854 8.1377 12.8936 9.97461 13.9233C11.7837 14.981 13.8154 15.9551 16.042 16.8735C16.3481 17.0127 16.6821 17.1519 16.9883 17.291C18.5469 17.9312 20.0498 18.627 21.4971 19.3784C22.9443 20.1299 24.2524 20.9927 25.4214 21.939C26.5903 22.9131 27.5366 23.9985 28.2324 25.251C28.9282 26.5034 29.29 27.9507 29.29 29.5928C29.29 31.8472 28.6499 33.6562 27.3975 35.02C26.145 36.4116 24.4473 37.4136 22.3042 38.0537C20.1611 38.6938 17.7954 39 15.1514 39C12.9805 39 10.8931 38.833 8.88916 38.4712C6.88525 38.1094 4.93701 37.4136 3.04443 36.356C2.68262 36.1611 2.3208 35.9663 1.93115 35.8271C1.56934 35.6602 1.40234 35.4375 1.40234 35.1592C1.40234 35.0479 1.43018 34.9087 1.48584 34.7695C1.5415 34.686 1.59717 34.6025 1.65283 34.519C2.37646 33.4336 2.90527 32.4873 3.26709 31.7358C3.51758 31.1792 3.62891 30.6504 3.62891 30.0938C3.62891 29.8711 3.62891 29.6484 3.57324 29.4258V29.3423C3.57324 29.1196 3.74023 28.9248 4.04639 28.7856C4.18555 28.73 4.29688 28.7021 4.4082 28.7021C4.60303 28.7021 4.74219 28.7856 4.85352 28.9805C6.10596 32.0142 7.85938 34.2686 10.1138 35.7993C11.895 36.9961 14.0381 37.6084 16.5151 37.6084C17.1831 37.6084 17.8789 37.5527 18.6025 37.4692C20.8291 37.1631 22.4712 36.3281 23.5566 34.9922C24.0854 34.3521 24.3359 33.6006 24.3359 32.7935C24.3359 31.9028 24.0298 30.9009 23.4453 29.8154C22.9165 28.9526 22.165 28.1733 21.2466 27.4775C20.3281 26.8096 19.2705 26.1973 18.1016 25.6128C16.9048 25.0283 15.6523 24.4717 14.3442 23.8872C12.7021 23.1914 11.0879 22.4399 9.50146 21.6328C7.88721 20.8257 6.41211 19.9351 5.104 18.9053C3.7959 17.8755 2.73828 16.6787 1.93115 15.3149C1.12402 13.9512 0.706543 12.3647 0.706543 10.5278C0.706543 8.21777 1.29102 6.38086 2.43213 5.01709C3.57324 3.65332 5.13184 2.65137 7.10791 2.03906C9.05615 1.45459 11.2271 1.14844 13.6484 1.14844C15.875 1.14844 18.1572 1.34326 20.5229 1.76074C22.8887 2.17822 25.0596 2.92969 27.0635 4.04297ZM64.1357 1.14844C64.4697 1.14844 64.6924 1.2876 64.8037 1.53809C64.8594 1.62158 64.8594 1.70508 64.8594 1.78857C64.8594 1.95557 64.7759 2.12256 64.6089 2.26172C64.5532 2.31738 64.4697 2.37305 64.3584 2.42871C63.8853 2.79053 63.4121 3.15234 62.9668 3.56982C62.4937 3.9873 62.1318 4.48828 61.8257 5.07275C61.5195 5.65723 61.3525 6.38086 61.3525 7.21582V26.5034C61.3525 30.9287 60.2949 34.0737 58.1797 35.9941C56.0366 37.9146 52.9194 38.9165 48.7725 39C48.4385 39 48.1045 39.0278 47.7983 39.0278C43.6235 39.0278 40.228 37.998 37.5562 35.9385C34.9121 33.8789 33.4927 30.4834 33.2979 25.752V7.41064C33.27 6.46436 33.1865 5.49023 33.0752 4.48828C32.9639 3.51416 32.8247 2.7627 32.6021 2.28955C32.5742 2.15039 32.5464 2.03906 32.5464 1.92773C32.5464 1.59375 32.7412 1.37109 33.103 1.23193C33.4648 1.2041 33.7988 1.17627 34.1606 1.17627C35.0791 1.17627 35.9976 1.31543 36.8882 1.56592C37.3613 1.67725 37.8066 1.76074 38.1963 1.81641C38.4189 1.84424 38.6138 1.84424 38.7808 1.84424C38.9756 1.84424 39.1704 1.84424 39.4209 1.81641C39.6436 1.78857 39.8662 1.64941 40.0332 1.39893C40.2002 1.23193 40.3672 1.14844 40.5342 1.14844C40.6455 1.14844 40.7568 1.17627 40.8682 1.23193C41.0908 1.34326 41.1743 1.51025 41.1743 1.76074C41.1743 1.87207 41.1465 2.01123 41.0908 2.17822C40.6455 3.4585 40.395 5.21191 40.3115 7.43848C40.3394 10.3052 40.3394 13.144 40.3394 15.9829C40.395 19.6011 40.395 23.2192 40.395 26.8096C40.395 28.4238 40.7012 30.0659 41.2856 31.7358C41.8979 33.4336 42.7886 34.8252 44.0132 35.9385C45.2378 37.0518 46.7964 37.6084 48.6611 37.6084C52.502 37.5806 55.3408 36.7456 57.1777 35.0757C59.0425 33.4336 59.9609 30.5669 59.9609 26.5034L59.9888 7.24365C59.9053 6.10254 59.5435 5.18408 58.9312 4.43262C58.291 3.70898 57.623 3.09668 56.8716 2.56787L56.4819 2.23389C56.3428 2.09473 56.2593 1.95557 56.2593 1.78857C56.2593 1.70508 56.3149 1.59375 56.3706 1.39893C56.4541 1.23193 56.6489 1.14844 56.9551 1.14844H64.1357ZM92.0791 4.04297C92.4409 4.23779 92.8027 4.40479 93.1924 4.54395C93.5542 4.71094 93.7212 4.93359 93.7212 5.23975C93.7212 5.35107 93.6934 5.49023 93.6377 5.62939L93.4707 5.85205C92.7471 6.9375 92.2183 7.88379 91.8564 8.66309C91.606 9.21973 91.4946 9.74854 91.4946 10.3052C91.4946 10.5278 91.4946 10.7505 91.5503 10.9731V11.0566C91.5503 11.2793 91.3833 11.4741 91.0493 11.6133C90.938 11.6689 90.8267 11.6968 90.7153 11.6968C90.5205 11.6968 90.3813 11.5854 90.27 11.3906C89.6299 9.83203 88.8784 8.55176 88.0435 7.52197C87.2085 6.52002 86.3735 5.71289 85.5107 5.12842C82.9502 3.4585 80.167 2.62354 77.1611 2.62354C76.7993 2.62354 76.4375 2.62354 76.0757 2.65137C73.877 2.79053 72.2627 3.51416 71.1772 4.87793C70.6206 5.57373 70.3145 6.38086 70.3145 7.29932C70.3145 8.13428 70.5649 9.0249 71.0103 10.0269C71.8174 11.5854 73.1533 12.8936 74.9902 13.9233C76.7993 14.981 78.8311 15.9551 81.0576 16.8735C81.3638 17.0127 81.6978 17.1519 82.0039 17.291C83.5625 17.9312 85.0654 18.627 86.5127 19.3784C87.96 20.1299 89.2681 20.9927 90.437 21.939C91.606 22.9131 92.5522 23.9985 93.248 25.251C93.9438 26.5034 94.3057 27.9507 94.3057 29.5928C94.3057 31.8472 93.6655 33.6562 92.4131 35.02C91.1606 36.4116 89.4629 37.4136 87.3198 38.0537C85.1768 38.6938 82.811 39 80.167 39C77.9961 39 75.9087 38.833 73.9048 38.4712C71.9009 38.1094 69.9526 37.4136 68.0601 36.356C67.6982 36.1611 67.3364 35.9663 66.9468 35.8271C66.585 35.6602 66.418 35.4375 66.418 35.1592C66.418 35.0479 66.4458 34.9087 66.5015 34.7695C66.5571 34.686 66.6128 34.6025 66.6685 34.519C67.3921 33.4336 67.9209 32.4873 68.2827 31.7358C68.5332 31.1792 68.6445 30.6504 68.6445 30.0938C68.6445 29.8711 68.6445 29.6484 68.5889 29.4258V29.3423C68.5889 29.1196 68.7559 28.9248 69.062 28.7856C69.2012 28.73 69.3125 28.7021 69.4238 28.7021C69.6187 28.7021 69.7578 28.7856 69.8691 28.9805C71.1216 32.0142 72.875 34.2686 75.1294 35.7993C76.9106 36.9961 79.0537 37.6084 81.5308 37.6084C82.1987 37.6084 82.8945 37.5527 83.6182 37.4692C85.8447 37.1631 87.4868 36.3281 88.5723 34.9922C89.1011 34.3521 89.3516 33.6006 89.3516 32.7935C89.3516 31.9028 89.0454 30.9009 88.4609 29.8154C87.9321 28.9526 87.1807 28.1733 86.2622 27.4775C85.3438 26.8096 84.2861 26.1973 83.1172 25.6128C81.9204 25.0283 80.668 24.4717 79.3599 23.8872C77.7178 23.1914 76.1035 22.4399 74.5171 21.6328C72.9028 20.8257 71.4277 19.9351 70.1196 18.9053C68.8115 17.8755 67.7539 16.6787 66.9468 15.3149C66.1396 13.9512 65.7222 12.3647 65.7222 10.5278C65.7222 8.21777 66.3066 6.38086 67.4478 5.01709C68.5889 3.65332 70.1475 2.65137 72.1235 2.03906C74.0718 1.45459 76.2427 1.14844 78.6641 1.14844C80.8906 1.14844 83.1729 1.34326 85.5386 1.76074C87.9043 2.17822 90.0752 2.92969 92.0791 4.04297ZM105.8 7.43848V20.6587C105.828 20.6309 105.856 20.5474 105.939 20.4639C106.023 20.3804 106.106 20.2969 106.246 20.1577C106.357 20.0464 106.496 19.9351 106.691 19.7959C106.858 19.6567 107.053 19.5454 107.303 19.4062C107.554 19.2671 107.832 19.1558 108.166 19.0166C108.472 18.9053 108.834 18.7939 109.251 18.7104C109.641 18.627 110.086 18.5435 110.587 18.46C111.061 18.4043 111.617 18.3765 112.202 18.3765H115.458C117.1 18.3765 118.492 18.0146 119.605 17.3188C120.69 16.623 121.386 15.4263 121.637 13.6729C121.637 12.5039 121.637 11.3628 121.665 10.2217V7.41064C121.637 6.46436 121.581 5.49023 121.47 4.48828C121.331 3.51416 121.164 2.7627 120.969 2.28955C120.941 2.15039 120.913 2.03906 120.913 1.92773C120.913 1.59375 121.108 1.37109 121.47 1.23193C121.804 1.2041 122.11 1.17627 122.444 1.17627C123.39 1.17627 124.336 1.31543 125.255 1.56592C125.979 1.73291 126.619 1.84424 127.147 1.87207H127.231C127.76 1.87207 128.149 1.70508 128.4 1.39893C128.567 1.23193 128.706 1.14844 128.901 1.14844C129.012 1.14844 129.124 1.17627 129.235 1.23193C129.458 1.34326 129.569 1.53809 129.569 1.78857C129.569 1.8999 129.541 2.03906 129.485 2.20605C129.012 3.4585 128.762 5.21191 128.706 7.43848V32.7378C128.734 33.7119 128.79 34.686 128.929 35.6602C129.04 36.6621 129.207 37.4136 129.402 37.8867C129.458 38.0259 129.458 38.1372 129.458 38.2485C129.458 38.5547 129.291 38.7773 128.901 38.9165C128.539 38.9443 128.177 38.9722 127.815 38.9722C126.897 38.9722 126.006 38.8608 125.116 38.6104C124.392 38.4155 123.752 38.332 123.195 38.3042H123.056C122.583 38.3042 122.221 38.4712 121.971 38.7773C121.832 38.9443 121.665 39.0278 121.498 39.0278C121.386 39.0278 121.275 38.9722 121.136 38.9165C120.913 38.8052 120.802 38.6382 120.802 38.3877C120.802 38.2764 120.83 38.1372 120.885 37.9702C121.108 37.4692 121.303 36.7178 121.442 35.688C121.581 34.686 121.637 33.7119 121.665 32.7378V25.084C121.665 22.5234 121.665 19.9629 121.637 17.4302C121.637 17.458 121.609 17.4858 121.581 17.5137C121.553 17.5415 121.498 17.5972 121.47 17.6528C121.414 17.7363 121.358 17.792 121.275 17.8755C121.191 17.959 121.08 18.0425 120.969 18.126C120.857 18.2095 120.746 18.3208 120.607 18.4043C120.468 18.4878 120.329 18.5991 120.162 18.6826C119.967 18.7939 119.8 18.8774 119.605 18.9609C119.41 19.0444 119.188 19.1279 118.937 19.2114C118.687 19.2949 118.436 19.3784 118.158 19.4341C117.879 19.5176 117.573 19.5732 117.267 19.6011C116.933 19.6567 116.599 19.7124 116.237 19.7402C115.82 19.7681 115.375 19.7681 114.957 19.7681C114.54 19.7681 114.094 19.7681 113.677 19.7402C113.343 19.7402 113.009 19.7124 112.647 19.7124C111.979 19.7124 111.311 19.7402 110.615 19.7959C109.307 19.9629 108.305 20.3525 107.609 20.9927C106.914 21.6328 106.468 22.3008 106.218 22.9966C105.967 23.7202 105.828 24.2769 105.8 24.6387V32.7378C105.828 34.9365 106.079 36.6343 106.496 37.8867C106.552 38.0259 106.552 38.1372 106.552 38.2485C106.552 38.5547 106.385 38.7773 105.995 38.9165C105.633 38.9443 105.271 38.9722 104.91 38.9722C103.991 38.9722 103.101 38.8608 102.21 38.6104C101.486 38.4155 100.846 38.332 100.29 38.3042H100.15C99.6772 38.3042 99.3154 38.4712 99.0649 38.7773C98.9258 38.9443 98.7588 39.0278 98.564 39.0278C98.4526 39.0278 98.3413 38.9722 98.2021 38.9165C98.0073 38.833 97.896 38.6382 97.896 38.4155C97.896 38.2764 97.9238 38.1372 97.9795 37.9702C98.4526 36.6899 98.7031 34.9365 98.7588 32.7378V7.41064C98.731 5.23975 98.4805 3.54199 98.063 2.28955C98.0352 2.15039 98.0073 2.03906 98.0073 1.92773C98.0073 1.59375 98.2021 1.37109 98.564 1.23193C98.8979 1.2041 99.2041 1.17627 99.5381 1.17627C100.484 1.17627 101.431 1.31543 102.349 1.56592C103.073 1.73291 103.713 1.84424 104.242 1.87207H104.325C104.854 1.87207 105.244 1.70508 105.494 1.39893C105.661 1.23193 105.8 1.14844 105.995 1.14844C106.106 1.14844 106.218 1.17627 106.329 1.23193C106.552 1.34326 106.663 1.53809 106.663 1.78857C106.663 1.8999 106.635 2.03906 106.58 2.20605C106.106 3.4585 105.856 5.21191 105.8 7.43848ZM141.954 32.7378C142.01 34.9365 142.232 36.6343 142.65 37.8867C142.706 38.0259 142.706 38.1372 142.706 38.2485C142.706 38.5547 142.539 38.7773 142.149 38.9165C141.787 38.9443 141.425 38.9722 141.063 38.9722C140.145 38.9722 139.254 38.8608 138.364 38.6104C137.64 38.4155 137.139 38.332 136.833 38.3042C136.555 38.3042 136.36 38.3042 136.332 38.3042C135.831 38.3042 135.469 38.4712 135.219 38.7773C135.08 38.9443 134.913 39.0278 134.746 39.0278C134.634 39.0278 134.523 38.9722 134.384 38.9165C134.189 38.833 134.078 38.6382 134.078 38.4155C134.078 38.2764 134.105 38.1372 134.161 37.9702C134.606 36.6899 134.857 34.9365 134.913 32.7378V24.8892C134.885 19.0723 134.885 13.2275 134.885 7.41064C134.857 5.23975 134.606 3.54199 134.189 2.28955C134.161 2.15039 134.133 2.03906 134.133 1.92773C134.133 1.59375 134.328 1.37109 134.69 1.23193C135.024 1.2041 135.33 1.17627 135.664 1.17627C136.61 1.17627 137.557 1.31543 138.475 1.56592C138.948 1.67725 139.366 1.76074 139.7 1.78857C140.006 1.84424 140.284 1.87207 140.507 1.87207C140.646 1.87207 140.785 1.87207 140.896 1.84424C141.203 1.78857 141.425 1.64941 141.62 1.39893C141.787 1.23193 141.954 1.14844 142.121 1.14844C142.232 1.14844 142.372 1.17627 142.483 1.23193C142.706 1.34326 142.789 1.51025 142.789 1.76074C142.789 1.8999 142.761 2.03906 142.706 2.20605C142.232 3.4585 141.982 5.21191 141.926 7.43848V15.9272C141.954 21.5493 141.954 27.1436 141.954 32.7378ZM149.524 39.0278C148.606 39.0278 147.799 38.6938 147.131 38.0815C146.491 37.4414 146.157 36.6621 146.157 35.7715C146.157 34.8809 146.491 34.1294 147.131 33.4893C147.799 32.8491 148.606 32.543 149.524 32.543C150.471 32.543 151.25 32.8491 151.918 33.4893C152.558 34.1294 152.892 34.8809 152.892 35.7715C152.892 36.6621 152.558 37.4414 151.918 38.0815C151.25 38.6938 150.471 39.0278 149.524 39.0278ZM164.971 19.9072V32.5986C164.999 33.5449 165.055 34.519 165.194 35.4932C165.305 36.4951 165.472 37.2466 165.667 37.7197C165.723 37.8589 165.723 37.9702 165.723 38.0815C165.723 38.4155 165.556 38.6382 165.166 38.7773C164.832 38.8052 164.47 38.833 164.136 38.833C163.19 38.833 162.271 38.6938 161.381 38.4434C160.908 38.332 160.462 38.2485 160.045 38.1929C159.85 38.165 159.655 38.1372 159.46 38.1372C159.293 38.1372 159.099 38.165 158.848 38.2207C158.625 38.2485 158.431 38.3877 158.236 38.6104C158.097 38.7773 157.93 38.8608 157.735 38.8608C157.624 38.8608 157.512 38.833 157.373 38.7773C157.178 38.666 157.067 38.499 157.067 38.2485C157.067 38.1372 157.095 37.998 157.15 37.8311C157.624 36.5508 157.874 34.7974 157.93 32.5986V23.6367C157.902 18.1816 157.902 12.7266 157.902 7.27148C157.874 6.29736 157.791 5.32324 157.679 4.34912C157.568 3.375 157.401 2.62354 157.206 2.12256C157.178 1.9834 157.15 1.87207 157.15 1.76074C157.15 1.45459 157.345 1.2041 157.707 1.09277C158.069 1.06494 158.403 1.03711 158.765 1.03711C159.683 1.03711 160.602 1.17627 161.492 1.42676C161.965 1.51025 162.383 1.59375 162.8 1.67725C163.023 1.70508 163.218 1.70508 163.385 1.70508C163.58 1.70508 163.774 1.70508 164.025 1.64941C164.248 1.62158 164.442 1.48242 164.637 1.23193C164.776 1.06494 164.943 0.981445 165.11 0.981445C165.222 0.981445 165.361 1.03711 165.472 1.09277C165.695 1.2041 165.778 1.37109 165.778 1.62158C165.778 1.73291 165.75 1.87207 165.695 2.03906C165.5 2.54004 165.333 3.2915 165.194 4.29346C165.055 5.32324 164.943 6.29736 164.916 7.27148C164.943 8.88574 164.943 10.5 164.943 12.1143C164.971 14.0625 164.971 16.0107 164.971 17.9312C169.758 14.4521 174.879 10.6948 180.334 6.63135C181.949 5.43457 183.396 4.37695 184.676 3.43066C184.982 3.15234 185.149 2.90186 185.149 2.65137C185.149 2.45654 185.038 2.26172 184.788 2.06689C184.648 1.92773 184.593 1.78857 184.593 1.62158C184.593 1.53809 184.621 1.42676 184.704 1.25977C184.788 1.09277 184.982 1.00928 185.289 1.00928L189.352 0.981445C189.714 1.00928 189.964 1.17627 190.048 1.45459C190.076 1.51025 190.076 1.56592 190.076 1.62158C190.076 1.84424 189.937 2.01123 189.686 2.15039C188.211 2.84619 186.235 4.0708 183.758 5.85205L170.649 15.5376C170.955 15.8994 171.261 16.2334 171.567 16.5952C177.607 23.6367 183.674 30.6782 189.742 37.6919C189.881 37.8867 189.964 38.0815 189.964 38.2764C189.964 38.3599 189.937 38.4712 189.909 38.5547C189.825 38.7773 189.658 38.8887 189.436 38.8887H189.296C188.434 38.5825 187.265 38.4155 185.845 38.332H185.372C184.12 38.332 182.923 38.5825 181.81 39.1113C181.698 39.1392 181.587 39.167 181.503 39.167C181.169 39.167 180.891 38.9722 180.724 38.5547C180.195 37.4692 178.191 34.9644 174.768 30.9844C171.317 27.0322 168.395 23.748 166.029 21.104C165.611 20.6309 165.25 20.2134 164.971 19.9072ZM201.32 37.6919C202.517 37.6919 203.574 37.2188 204.437 36.2725C205.3 35.3262 206.023 34.0737 206.552 32.543C207.081 31.0122 207.443 29.3145 207.638 27.4775C207.749 26.5034 207.777 25.5571 207.777 24.583C207.777 23.7202 207.721 22.6069 207.61 21.2432C207.471 19.8794 207.165 18.4321 206.636 16.9014C206.107 15.3706 205.411 14.1182 204.548 13.1719C203.658 12.2534 202.572 11.7803 201.32 11.7803C200.067 11.7803 198.982 12.2534 198.119 13.1719C197.229 14.1182 196.533 15.3706 196.032 16.9014C195.503 18.4321 195.169 20.1299 195.002 21.9668C194.918 22.8296 194.891 23.7202 194.891 24.583C194.891 25.5571 194.946 26.7261 195.085 28.1177C195.225 29.5371 195.586 31.0122 196.115 32.543C196.644 34.0737 197.368 35.3262 198.23 36.2725C199.093 37.2188 200.123 37.6919 201.32 37.6919ZM201.348 39.0557C198.815 39.0557 196.644 38.5269 194.807 37.4692C192.97 36.4395 191.495 35.0479 190.382 33.3501C189.269 31.6523 188.517 29.8154 188.1 27.7837C187.905 26.6982 187.793 25.6406 187.793 24.583C187.793 23.6089 187.933 22.3843 188.183 20.8813C188.434 19.3784 189.102 17.7642 190.187 16.0664C191.272 14.3687 192.748 13.0049 194.612 11.9751C196.477 10.9453 198.704 10.4165 201.348 10.4165C203.992 10.4165 206.218 10.9453 208.083 11.9751C209.948 13.0049 211.423 14.3687 212.508 16.0664C213.594 17.7642 214.317 19.6567 214.679 21.6885C214.846 22.6348 214.902 23.5532 214.902 24.4995C214.902 25.585 214.763 26.9209 214.457 28.4795C214.15 30.0381 213.455 31.6523 212.341 33.3501C211.2 35.0479 209.725 36.4395 207.888 37.4692C206.051 38.5269 203.88 39.0557 201.348 39.0557Z" fill="white"/>
</svg>
